PathFileType	4	(X/Y/Z)	C:/Users/beibeiliu/ov580/test_trc\sequence.34_training_dense_right.trc
DataRate	CameraRate	NumFrames	NumMarkers	Units	OrigDataRate	OrigDataStartFrame	OrigNumFrames
120	120	17	19	mm	120	57	142
Frame#	Time	ThumbCMC			ThumbMCP			ThumbIP			ThumbTip			IndexMCP			IndexPIP			IndexTip			MiddleMCP			MiddlePIP			MiddleTip			RingMCP			RingPIP			RingTip			PinkyMCP			PinkyPIP			PinkyTip			BackHand1			BackHand2			BackHand3	
		X0	Y0	Z0	X1	Y1	Z1	X2	Y2	Z2	X3	Y3	Z3	X4	Y4	Z4	X5	Y5	Z5	X6	Y6	Z6	X7	Y7	Z7	X8	Y8	Z8	X9	Y9	Z9	X10	Y10	Z10	X11	Y11	Z11	X12	Y12	Z12	X13	Y13	Z13	X14	Y14	Z14	X15	Y15	Z15	X16	Y16	Z16	X17	Y17	Z17	X18	Y18	Z18	
56	0.466667	53.9105	92.0486	54.6116	32.296	98.8992	37.6619	20.5629	110.33	24.0154	10.1742	119.381	6.7827	49.8727	149.659	19.288	37.8161	158.28	0.00172746	33.537	147.856	-27.7355	77.2736	155.55	23.5154	76.9347	177.245	8.31042	71.2583	189.516	-18.4914	95.8287	144.615	23.7817	101.788	168.922	14.3581	102.021	185.187	-0.214109	113.071	130.604	21.0855	126.191	143.118	16.4554	135.74	159.626	12.7417	99.8555	115.395	45.2006	101.987	99.303	64.0205	75.4786	112.779	59.3397	
57	0.475	51.8622	87.7001	53.0221	29.4872	96.9872	35.4704	14.5413	107.389	20.8667	9.30819	113.362	6.64552	44.8172	142.984	17.4909	34.9102	153.838	-6.55655	32.8135	141.185	-32.5536	75.9041	152.604	18.278	71.2354	176.169	1.30322	69.3591	184.658	-24.0211	96.5323	141.722	19.9735	97.4717	164.821	11.5862	93.9747	184.076	-3.24569	115.535	129.082	19.308	119.468	143.129	13.6124	131.42	162.033	11.6144	94.2653	114.401	44.2092	100.202	100.31	60.1765	73.8468	110.538	56.8205	
58	0.483333	51.2953	87.7307	50.4098	29.7186	90.0996	35.7518	13.9847	99.2401	23.0949	6.58504	108.976	3.96336	44.576	138.367	11.5577	29.7759	145.274	-12.9347	29.3675	132.897	-36.1204	72.3197	147.877	13.9469	70.3063	171.461	-7.27803	61.9877	179.043	-34.0911	90.0122	140.96	17.3714	96.1259	163.497	5.32877	92.863	179.547	-6.71315	113.005	126.392	17.5852	119.762	141.568	12.017	128.368	158.181	11.8316	96.02	111.458	41.2466	99.8758	96.413	62.5504	71.8718	107.74	56.3522	
59	0.491667	52.001	85.3009	49.9394	26.6454	88.1787	37.0017	17.2484	99.2896	18.7233	5.51884	103.881	4.42014	41.0789	134.28	8.93994	33.3935	141.978	-15.8551	34.2837	129.877	-41.4721	69.8931	148.109	7.33983	66.5256	166.277	-12.7944	62.9643	172.113	-37.8194	92.4438	140.056	14.2531	94.3723	161.124	2.39453	93.6447	176.23	-12.5525	111.794	123.175	16.9943	119.385	138.416	10.8016	123.465	155.723	6.45348	92.6915	114.125	37.3224	98.1143	97.445	61.9605	71.6389	107.188	55.4826	
60	0.5	48.1053	83.6654	52.388	29.5334	89.8827	36.0959	13.4948	98.2211	21.4953	1.40838	104.541	3.01998	43.8271	138.794	6.896	32.4376	143.917	-19.0045	30.776	131.243	-43.3159	68.4318	144.529	8.43239	63.4296	163.167	-12.5377	64.612	169.187	-45.7983	92.7905	141.929	11.9931	93.2137	159.139	-0.733023	92.2654	175.15	-18.532	112.136	122.049	15.3562	114.768	142.489	6.18629	124.918	155.07	1.60467	94.3479	113.481	38.4608	97.4342	98.4085	60.3922	69.7388	109.935	52.3624	
61	0.508333	46.704	87.7363	49.9732	23.0626	89.337	39.1845	9.2987	100.246	21.5695	5.47708	106.941	2.44748	43.9567	137.153	11.8821	36.7076	150.848	-15.405	29.6666	140.02	-37.3322	72.0331	144.416	7.99477	63.8101	165.966	-13.3825	61.1383	168.88	-41.6993	87.9922	139.806	11.9878	89.3949	158.325	-0.222708	89.0284	171.85	-21.3414	107.24	126.23	14.291	114.279	139.754	5.87392	117.217	160.131	-10.5828	92.989	112.63	36.0886	95.9108	98.0652	58.4679	65.68	108.421	52.8548	
62	0.516667	44.8416	88.9556	52.6246	23.6335	93.3771	38.7474	9.16084	106.271	20.497	2.99745	111.777	2.19819	46.4784	141.004	14.7198	37.9198	156.69	-5.88228	27.6233	148.178	-33.4029	70.2456	152.575	10.5513	63.8868	169.098	-9.14345	62.1964	168.775	-41.7694	89.9768	140.024	13.1843	84.3369	163.238	-3.87598	81.6059	169.306	-30.1223	108.158	124.83	15.5424	109.275	145.643	2.29718	104.878	155.968	-19.0357	91.2667	111.883	39.3186	97.1204	97.3477	60.4658	67.1939	109.792	51.6177	
63	0.525	44.1416	91.5914	52.7738	23.689	97.5322	39.3653	9.08637	108.521	24.5548	1.89246	117.067	2.11089	48.1325	145.347	19.4669	32.3395	163.619	1.04986	30.6246	157.402	-27.1366	71.9425	152.153	14.6223	67.2592	171.54	-3.60864	62.7624	167.253	-39.4037	90.661	141.479	14.8735	87.5434	162.311	-3.42797	80.0109	162.481	-27.8021	107.512	126.719	15.3878	106.073	145.183	3.20905	100.938	151.62	-21.2425	92.3774	116.541	39.6701	96.0704	96.6	60.9485	65.8575	110.785	53.8269	
64	0.533333	48.1608	88.829	57.1768	22.8212	101.191	42.1201	9.77505	108.952	29.7411	2.92915	121.331	8.48062	47.2115	146.225	28.2276	35.3462	169.73	9.06696	30.8523	168.861	-17.3088	70.6871	154.871	20.4619	71.5791	174.281	-1.18054	61.4441	168.016	-30.2914	91.0865	144.103	17.8815	88.3236	165.074	-5.41218	77.7376	159.576	-24.7212	106.731	129.528	16.772	108.092	147.613	0.37276	101.202	148.712	-22.4004	95.1161	116.682	40.583	98.3654	97.7227	61.8716	70.4847	110.135	57.4939	
65	0.541667	47.5168	92.3064	57.9439	28.3711	100.821	43.1867	11.548	111.559	34.0089	0.945339	121.019	17.3915	51.8916	148.318	31.1315	45.8041	174.067	15.7616	36.2354	181.702	-4.53162	78.9405	158.782	22.0406	75.5028	176.062	2.05476	64.7876	169.768	-25.6419	91.1821	147.754	19.4426	87.6933	164.842	-0.450861	76.5167	157.916	-24.3828	108.951	131.823	17.2375	111.921	147.702	-1.6264	101.726	148.892	-19.7278	96.6636	114.777	43.9105	97.6316	95.9826	62.9782	74.0717	114.729	59.0015	
66	0.55	46.9015	95.783	57.0983	29.1043	100.499	42.3655	8.94303	113.344	34.3823	-3.0176	120.836	21.854	56.0344	153.479	26.9144	48.4589	174.441	19.7559	40.4831	192.99	-0.956255	80.2468	155.273	20.2507	79.9237	177.368	-0.274261	71.3569	173.032	-32.0135	97.2753	148.566	16.2097	94.5809	165.556	-5.87973	83.9392	162.824	-26.4444	112.081	128.685	14.9779	116.935	143.33	0.995696	113.407	148.491	-24.9366	99.9283	118.173	40.0968	100.092	98.7222	59.2212	74.707	113.375	58.171	
67	0.558333	46.1884	99.219	54.6252	29.3146	101.236	37.1141	11.4678	111.089	26.7303	-5.93146	114.355	22.1178	57.4128	154.143	18.0671	49.6698	174.279	7.69453	47.2692	192.746	-6.52748	78.9349	158.932	10.2185	82.6452	175.683	-7.43715	79.0184	183.467	-34.9045	99.1406	141.863	8.40521	98.9496	160.87	-10.5507	93.516	166.638	-34.0493	115.724	123.816	6.12397	119.715	140.161	-12.2206	123.485	145.261	-29.6492	98.8384	116.61	37.9811	103.264	99.9994	58.8466	73.3617	119.503	53.7358	
68	0.566667	47.8412	102.721	50.7428	32.9332	99.8808	32.6229	9.51561	104.824	23.5865	-5.1942	107.933	16.2551	55.6396	151.842	7.44464	50.4061	167.579	-6.80459	41.3129	184.199	-19.1731	79.9776	158.003	-3.25629	78.5413	170.462	-19.9591	76.9453	185.432	-42.0923	98.7131	141.703	-5.89737	95.2599	154.328	-24.3215	93.5145	166.171	-45.7422	113.409	123.291	-6.28878	114.482	128.923	-20.7853	121.611	137.984	-41.4764	97.8382	121.443	34.0996	102.9	108.726	53.1354	78.615	123.961	47.8678	
69	0.575	53.2648	112.335	46.1105	35.5943	105.463	29.8391	14.4514	109.152	14.5926	1.85995	107.619	8.99819	48.5723	155.168	-2.91754	42.4602	162.332	-19.196	35.2244	172.808	-34.6333	72.0881	155.321	-12.8375	66.5619	163.469	-31.7341	68.0972	174.175	-55.1935	92.8678	140.646	-14.4996	86.4404	146.547	-34.2102	88.4256	152.972	-56.4695	108.217	125.074	-15.5218	111.812	121.875	-29.0649	113.747	125.217	-47.3174	101.467	130.536	27.2308	101.696	117.856	54.4773	76.6997	129.967	48.7838	
70	0.583333	54.9706	118.915	48.9945	36.545	114.517	26.7868	16.6763	117.114	13.0603	4.20451	118.165	3.14024	49.3638	156.049	-9.67025	38.9187	157.29	-25.393	27.6085	161.773	-46.2821	71.0803	153.201	-18.4821	58.8141	154.765	-35.3831	56.6369	156.7	-60.5556	85.7854	141.447	-18.3029	78.7336	141.408	-38.2135	71.7307	141.229	-58.4573	104.55	128.055	-18.5907	101.793	122.006	-36.3411	97.705	122.226	-50.5317	101.294	137.129	24.32	103.723	127.639	49.0797	79.9786	141.852	46.5569	
71	0.591667	53.9133	124.586	48.1574	34.5052	121.64	28.6694	23.5083	127.819	7.11038	6.66488	130.787	-3.99957	47.434	158.338	-6.82342	39.6068	153.622	-28.8396	27.2524	150.84	-44.2389	63.0937	153.078	-19.6991	54.6571	148.67	-36.8975	43.7636	138.762	-62.8478	82.5289	141.692	-20.5181	76.1214	133.231	-38.9973	61.3981	124.82	-58.3137	102.339	129.164	-15.7811	92.7921	124.459	-32.7021	81.7302	114.565	-45.2212	102.591	142.223	28.3745	103.771	129.035	54.3775	78.9086	141.915	49.503	
72	0.6	54.4949	124.916	50.6298	36.6479	129.327	24.2755	26.4292	137.334	5.80671	13.6266	141.894	-7.57895	51.7272	162.554	-3.61534	40.0194	154.814	-28.8681	31.219	142.756	-46.6857	65.6299	154.858	-17.1101	56.5558	143.723	-38.3139	44.4919	126.09	-53.0927	82.5891	145.274	-16.8572	67.6821	131.436	-35.4602	58.2266	111.59	-45.7568	98.7699	135.146	-13.4702	82.3529	122.61	-29.5834	67.426	105.581	-32.5573	101.968	145.231	30.1058	104.933	133.173	50.6627	76.3731	147.771	48.3365	
